<?xml version="1.0" encoding="utf-8"?>
<!-- Generator: Adobe Illustrator 24.0.0, SVG Export Plug-In . SVG Version: 6.00 Build 0)  -->
<svg version="1.1" id="Layer_1" xmlns="http://www.w3.org/2000/svg" xmlns:xlink="http://www.w3.org/1999/xlink" x="0px" y="0px"
	 viewBox="0 0 200 40" style="enable-background:new 0 0 200 40;" xml:space="preserve">
<style type="text/css">
	.st0{fill:#0058FF;}
	.st1{fill:#0056FF;}
</style>
<g>
	<path class="st0" d="M17.93,6.06C16,6.85,14.27,8,12.78,9.48c-1.49,1.49-2.64,3.22-3.42,5.15C8.6,16.5,8.22,18.48,8.22,20.5
		c0,2.02,0.38,4,1.14,5.86c0.78,1.93,1.94,3.67,3.42,5.15c1.49,1.49,3.22,2.64,5.15,3.42c1.87,0.76,3.84,1.14,5.86,1.14
		s3.99-0.38,5.86-1.14c1.93-0.78,3.67-1.93,5.15-3.42c1.49-1.49,2.64-3.22,3.42-5.15c0.76-1.87,1.14-3.84,1.14-5.86
		c0-2.02-0.38-4-1.14-5.86c-0.78-1.93-1.94-3.67-3.42-5.15s-3.22-2.64-5.15-3.42c-1.87-0.76-3.84-1.14-5.86-1.14
		S19.8,5.31,17.93,6.06z M12.11,27.06c-0.75-0.47-1.44-1.01-2.05-1.65c-0.94-2.63-1.09-5.48-0.47-8.18c0.29-0.57,0.62-1.13,1-1.66
		c0.12-0.16,0.22-0.33,0.35-0.49l3.52,2.08c0,0.03,0,0.06,0,0.09c-0.01,1.89,0.18,3.77,0.57,5.62c0,0.01,0,0.01,0,0.02l-2.73,4.27
		C12.23,27.13,12.17,27.09,12.11,27.06z M22.56,34.28c0.61,0.31,1.23,0.57,1.87,0.78c-2.72,0.12-5.47-0.52-7.9-1.91l5.89,1.05
		C22.47,34.23,22.51,34.26,22.56,34.28z M22.54,33.22l-6.95-1.24c-0.81-0.99-1.55-2.03-2.17-3.15c-0.16-0.28-0.34-0.56-0.47-0.86
		l2.72-4.27c0.06,0.02,0.13,0.03,0.2,0.05c1.7,0.46,3.44,0.78,5.18,1.03c0.1,0.01,0.19,0.03,0.26,0.03l3.26,5.64
		c-0.57,0.8-1.14,1.59-1.72,2.37C22.75,32.97,22.65,33.1,22.54,33.22z M34.11,30.82c-0.55,0.55-1.14,1.05-1.76,1.5
		c-0.1-0.82-0.28-1.61-0.53-2.39l3.48-6.5c0.96-0.44,1.89-0.93,2.74-1.55c0.11-0.08,0.21-0.17,0.28-0.27
		C38.08,24.97,36.67,28.25,34.11,30.82z M33.96,22.39c0.13,0.25,0.26,0.5,0.39,0.75l-3.36,6.28c-0.02,0-0.04,0.01-0.06,0.01
		c-1.82,0.34-3.65,0.52-5.5,0.53l-3.36-5.81c0.52-0.97,1.04-1.94,1.55-2.92c0.35-0.66,0.69-1.33,1.03-1.99l6.95-0.71
		C32.45,19.77,33.26,21.05,33.96,22.39z M32.55,14.94c-0.33,0.87-0.68,1.73-1.03,2.6l-6.77,0.7c-0.08-0.11-0.16-0.21-0.25-0.31
		c-0.8-0.91-1.6-1.81-2.41-2.71c0.01-0.01,0.01-0.02,0.02-0.02c-0.32-0.32-0.65-0.65-0.97-0.97l1.88-5.67
		c0.13-0.03,0.26-0.06,0.39-0.08c1.02-0.1,2.05-0.22,3.08-0.28c0.63-0.04,1.26-0.06,1.9-0.01l4.66,5.26
		C32.89,13.94,32.73,14.45,32.55,14.94z M34.11,10.18c1.29,1.29,2.28,2.76,2.99,4.33c-0.87-0.6-1.8-1.09-2.78-1.5
		c-0.15-0.06-0.31-0.12-0.47-0.17l-4.59-5.17c0.03-0.22,0.05-0.45,0.06-0.67C31.06,7.7,32.7,8.77,34.11,10.18z M19.12,6.72
		c0.02,0.01,0.03,0.02,0.04,0.03c1.05,0.36,2,0.9,2.9,1.53l-1.76,5.3c-0.01,0-0.02,0.01-0.03,0.01c-0.36,0.15-0.73,0.28-1.08,0.44
		c-1.46,0.66-2.89,1.4-4.23,2.28l-3.47-2.06c0.01-0.11,0.02-0.22,0.06-0.32c0.23-0.62,0.46-1.25,0.73-1.86
		c0.2-0.47,0.43-0.92,0.69-1.37c0.17-0.18,0.34-0.36,0.51-0.54c1.65-1.65,3.6-2.82,5.68-3.51C19.14,6.69,19.13,6.7,19.12,6.72z"/>
</g>
<g>
	<g>
		<path class="st1" d="M52.35,13.34v-0.96h6.72v0.96l-3.12,0.36h-0.48L52.35,13.34z M55.71,27.14v1.32h-3.36V27.5l3.12-0.36H55.71z
			 M54.56,12.38h2.3c-0.07,2.47-0.07,4.97-0.07,7.44v1.68c0,2.04,0,4.54,0.07,6.96h-2.3c0.07-2.47,0.07-4.97,0.07-7.44v-1.2
			C54.63,17.3,54.63,14.8,54.56,12.38z M64.52,23.95l-0.24,4.51h-8.57v-1.2h7.73l-1.32,1.2l0.96-4.51H64.52z"/>
		<path class="st1" d="M76.61,21.36c0,0.55-0.07,1.03-0.17,1.34h-8.86v-1.01h5.71c1.15,0,1.42-0.55,1.42-1.22
			c0-1.37-1.15-2.62-2.66-2.62c-1.54,0-3.31,1.3-3.31,4.73c0,3.05,1.54,4.68,3.94,4.68c1.54,0,2.5-0.7,3.36-1.7l0.55,0.43
			c-0.86,1.7-2.4,2.78-4.58,2.78c-3.22,0-5.3-2.23-5.3-5.88c0-3.67,2.5-6.12,5.47-6.12C74.64,16.77,76.61,18.45,76.61,21.36z"/>
		<path class="st1" d="M83.31,27.57c0.53,0,1.01-0.22,1.63-0.67l0.55,0.65c-0.6,0.77-1.58,1.22-2.78,1.22
			c-1.66,0-2.69-0.86-2.69-2.71c0-0.58,0.02-1.08,0.02-2.02v-5.71h-2.02V17.3L81,16.92l-0.96,0.79l0.72-3.89h1.39l-0.19,4.2v7.78
			C81.96,27.04,82.49,27.57,83.31,27.57z M85.28,17.08v1.25H81v-1.25H85.28z"/>
		<path class="st1" d="M86.45,17.8L86,17.16c1.34-1.06,1.97-1.78,2.57-3.41l0.19,0.86l-1.06-0.98c-0.72-0.62-0.94-1.18-0.94-1.78
			c0-0.96,0.53-1.39,1.37-1.39c0.48,0,0.91,0.12,1.3,0.48c0.19,0.5,0.31,1.08,0.31,1.68C89.74,14.71,88.23,16.63,86.45,17.8z"/>
		<path class="st1" d="M91.9,27.86l-0.1-2.62h1.27l0.65,2.83l-1.18-0.55v-0.82c0.84,0.65,1.75,0.98,2.95,0.98
			c1.85,0,2.71-0.74,2.71-1.85c0-1.03-0.72-1.56-2.23-2.11l-1.1-0.41c-1.75-0.65-2.9-1.58-2.9-3.22c0-1.73,1.46-3.34,4.13-3.34
			c1.3,0,2.3,0.36,3.34,0.98l-0.1,2.42h-1.2l-0.48-2.42l0.86,0.38v0.62c-0.77-0.6-1.58-0.91-2.45-0.91c-1.49,0-2.26,0.65-2.26,1.66
			c0,1.08,0.6,1.49,2.23,2.09l0.72,0.26c2.4,0.89,3.31,2.02,3.31,3.5c0,1.78-1.56,3.41-4.63,3.41
			C94.11,28.77,93.07,28.46,91.9,27.86z"/>
		<path class="st1" d="M107.74,13.34v-0.96h3.36v1.32h-0.24L107.74,13.34z M111.34,27.14l3.12,0.36v0.96h-6.72V27.5l3.12-0.36
			H111.34z M110.02,19.82c0-2.47,0-4.97-0.07-7.44h2.3c-0.07,2.42-0.07,4.92-0.07,7.44v0.91c0,2.76,0,5.26,0.07,7.73h-2.3
			c0.07-2.42,0.07-4.92,0.07-7.44V19.82z M117.75,12.38l1.08,1.2h-7.73v-1.2h8.57l0.17,4.27h-1.34L117.75,12.38z M116.71,20.8h-5.62
			v-1.1h5.62V20.8z M115.95,19.94l0.36-2.54h1.08v5.93h-1.08l-0.36-2.66V19.94z"/>
		<path class="st1" d="M124.73,24.21c0,2.14,0.62,2.88,1.94,2.88c1.22,0,2.47-0.6,3.67-1.8h0.5v1.22h-1.22l0.84-0.36
			c-1.37,1.85-3,2.62-4.56,2.62c-1.92,0-3.12-1.15-3.1-4.32l0.07-6.34l0.5,0.46l-2.23-0.48v-0.84l3.46-0.31l0.24,0.24l-0.12,3.36
			V24.21z M130.44,28.65l-0.34-2.81l0.07-7.73l0.5,0.46l-2.23-0.48v-0.84l3.41-0.31l0.24,0.24l-0.07,3.36v7.18l-0.58-0.58l2.23,0.48
			v0.84L130.44,28.65z"/>
		<path class="st1" d="M140.02,27.57c0.53,0,1.01-0.22,1.63-0.67l0.55,0.65c-0.6,0.77-1.58,1.22-2.78,1.22
			c-1.66,0-2.69-0.86-2.69-2.71c0-0.58,0.02-1.08,0.02-2.02v-5.71h-2.02V17.3l2.98-0.38l-0.96,0.79l0.72-3.89h1.39l-0.19,4.2v7.78
			C138.67,27.04,139.2,27.57,140.02,27.57z M141.99,17.08v1.25h-4.27v-1.25H141.99z"/>
		<path class="st1" d="M143.52,27.86l-0.1-2.62h1.27l0.65,2.83l-1.18-0.55v-0.82c0.84,0.65,1.75,0.98,2.95,0.98
			c1.85,0,2.71-0.74,2.71-1.85c0-1.03-0.72-1.56-2.23-2.11l-1.1-0.41c-1.75-0.65-2.9-1.58-2.9-3.22c0-1.73,1.46-3.34,4.13-3.34
			c1.3,0,2.3,0.36,3.34,0.98l-0.1,2.42h-1.2l-0.48-2.42l0.86,0.38v0.62c-0.77-0.6-1.58-0.91-2.45-0.91c-1.49,0-2.26,0.65-2.26,1.66
			c0,1.08,0.6,1.49,2.23,2.09l0.72,0.26c2.4,0.89,3.31,2.02,3.31,3.5c0,1.78-1.56,3.41-4.63,3.41
			C145.73,28.77,144.7,28.46,143.52,27.86z"/>
		<path class="st1" d="M157.71,22.17c1.01-0.36,2.52-0.79,3.72-1.01v0.86c-1.08,0.22-2.5,0.67-3.22,0.96
			c-2.16,0.84-2.4,1.75-2.4,2.45c0,1.27,0.84,1.78,1.94,1.78c0.84,0,1.32-0.31,2.83-1.39l0.48-0.36l0.34,0.5l-0.7,0.7
			c-1.44,1.44-2.26,2.11-3.72,2.11c-1.75,0-3.22-1.01-3.22-3C153.77,24.43,154.49,23.35,157.71,22.17z M160.47,26.25v-5.47
			c0-2.35-0.67-2.93-2.26-2.93c-0.55,0-1.27,0.07-2.16,0.43l0.96-0.74l-0.62,2.06c-0.22,0.7-0.58,1.08-1.22,1.08
			c-0.65,0-1.03-0.36-1.08-0.96c0.46-1.82,2.23-2.95,4.63-2.95c2.47,0,3.67,1.13,3.67,4.15v5.09c0,1.08,0.34,1.46,0.89,1.46
			c0.41,0,0.67-0.22,0.94-0.53l0.48,0.53c-0.58,0.91-1.22,1.22-2.04,1.22C161.33,28.7,160.47,27.74,160.47,26.25z"/>
		<path class="st1" d="M169.13,10.7l0.34,0.19l-0.1,3.41v9.12c0,1.68,0.02,3.36,0.07,5.04h-2.06c0.05-1.68,0.07-3.36,0.07-5.04
			V12.86l-1.99-0.24v-0.84L169.13,10.7z M171.36,27.62v0.84h-5.91v-0.84l2.71-0.48h0.48L171.36,27.62z"/>
	</g>
</g>
</svg>
